 <svg version="1.0" xmlns="http://www.w3.org/2000/svg" width="700.000000pt" height="525.000000pt" viewBox="0 0 700.000000 525.000000" preserveAspectRatio="xMidYMid meet">
<metadata>
Created by potrace 1.12, written by Peter Selinger 2001-2015
</metadata>
<g transform="translate(0.000000,525.000000) scale(0.100000,-0.100000)" fill="#000000" stroke="none">
<path d="M2043 4113 l-433 -3 0 -340 0 -340 635 0 635 0 2 -1517 3 -1518 342
-3 343 -2 2 507 3 508 300 6 c371 8 442 22 630 117 126 65 244 182 303 302 69
139 85 217 86 410 1 198 -14 279 -79 408 -121 241 -365 390 -693 422 -53 5
-199 10 -324 10 l-228 0 0 175 0 175 760 0 760 0 0 338 0 339 -647 6 c-598 7
-1326 6 -2400 0z m2044 -1567 c73 -23 133 -72 163 -131 33 -67 40 -205 15
-291 -22 -77 -85 -141 -170 -175 -57 -22 -72 -23 -290 -24 l-230 0 -3 310 c-1
170 0 316 3 323 8 22 441 11 512 -12z"></path>
</g>
</svg>